<svg width="105" height="15" viewBox="0 0 105 15" fill="none" xmlns="http://www.w3.org/2000/svg">
<path d="M3.21919 14.3433H0.0451429V0.165854H7.45125C10.7311 0.165854 12.8471 2.02796 12.8471 5.28665C12.8471 8.54534 10.7311 10.4286 7.45125 10.4286H3.21919V14.3433ZM7.11269 3.0225H3.21919V7.57196H7.11269C8.86899 7.57196 9.69424 7.06412 9.69424 5.28665C9.69424 3.5515 8.86899 3.0225 7.11269 3.0225ZM19.6227 14.5549C16.0043 14.5549 13.5709 12.3965 13.5709 9.05318C13.5709 5.66753 16.0043 3.53034 19.6227 3.53034C23.2411 3.53034 25.6746 5.66753 25.6746 9.05318C25.6746 12.3965 23.2411 14.5549 19.6227 14.5549ZM19.6227 11.7405C21.7599 11.7405 22.5217 10.9153 22.5217 9.05318C22.5217 7.19108 21.7599 6.3235 19.6227 6.3235C17.4644 6.3235 16.7238 7.19108 16.7238 9.05318C16.7238 10.9153 17.4644 11.7405 19.6227 11.7405ZM30.1449 14.3433H26.9708V0.165854H30.1449V7.67776H32.5571L35.2657 3.74195H39.0322L35.1598 8.86274L38.9687 14.3433H35.2233L32.5783 10.5132H30.1449V14.3433ZM45.432 14.5549C41.8982 14.5549 39.486 12.8197 39.486 9.05318C39.486 5.66753 41.8771 3.53034 45.3685 3.53034C48.8388 3.53034 51.1453 5.35013 51.1453 8.6723C51.1453 9.05318 51.103 9.32827 51.0607 9.68799H42.4273C42.5119 11.3173 43.2737 12.0156 45.3262 12.0156C47.2095 12.0156 47.8655 11.5289 47.8655 10.619V10.4074H51.0395V10.6402C51.0395 12.9467 48.7965 14.5549 45.432 14.5549ZM45.3051 6.0061C43.4218 6.0061 42.6177 6.64091 42.4696 8.01633H48.0982C48.0136 6.61975 47.1672 6.0061 45.3051 6.0061Z" fill="black"/>
<path d="M55.4326 14.3433H52.4913V0.165854H55.6653V6.55627H55.8346C56.1944 4.7788 57.4851 3.53034 60.0032 3.53034C63.1773 3.53034 64.9547 5.66753 64.9547 9.05318C64.9547 12.3965 63.1561 14.5549 59.8551 14.5549C57.4005 14.5549 56.0039 13.4968 55.623 11.402H55.4326V14.3433ZM55.6653 9.11667C55.6653 10.9576 56.7445 11.6559 58.7548 11.6559C60.8073 11.6559 61.7384 10.9788 61.7384 9.05318C61.7384 7.10644 60.8073 6.42931 58.7759 6.42931C56.7234 6.42931 55.6653 7.10644 55.6653 8.94738V9.11667ZM71.9242 14.5549C68.3058 14.5549 65.8724 12.3965 65.8724 9.05318C65.8724 5.66753 68.3058 3.53034 71.9242 3.53034C75.5426 3.53034 77.9761 5.66753 77.9761 9.05318C77.9761 12.3965 75.5426 14.5549 71.9242 14.5549ZM71.9242 11.7405C74.0614 11.7405 74.8232 10.9153 74.8232 9.05318C74.8232 7.19108 74.0614 6.3235 71.9242 6.3235C69.7659 6.3235 69.0253 7.19108 69.0253 9.05318C69.0253 10.9153 69.7659 11.7405 71.9242 11.7405ZM84.9221 14.5549C81.3037 14.5549 78.8703 12.3965 78.8703 9.05318C78.8703 5.66753 81.3037 3.53034 84.9221 3.53034C88.5405 3.53034 90.974 5.66753 90.974 9.05318C90.974 12.3965 88.5405 14.5549 84.9221 14.5549ZM84.9221 11.7405C87.0593 11.7405 87.8211 10.9153 87.8211 9.05318C87.8211 7.19108 87.0593 6.3235 84.9221 6.3235C82.7638 6.3235 82.0232 7.19108 82.0232 9.05318C82.0232 10.9153 82.7638 11.7405 84.9221 11.7405ZM95.4442 14.3433H92.2702V0.165854H95.4442V7.67776H97.8565L100.565 3.74195H104.332L100.459 8.86274L104.268 14.3433H100.523L97.8777 10.5132H95.4442V14.3433Z" fill="#E85382"/>
</svg>
